<?xml version="1.0" standalone="yes"?>
<svg width="64" height="64">
<path style="fill:#01ff01; stroke:none;" d="M0 0L0 64L64 64L64 0L0 0z"/>
<path style="fill:#010101; stroke:none;" d="M26 1.46759C-13.6646 8.95062 -1.23012 69.9335 38 62.5324C77.6646 55.0494 65.2301 -5.93346 26 1.46759z"/>
<path style="fill:#6d1b7d; stroke:none;" d="M2 37C9.97424 25.5146 14.5791 24.2299 28 27L27 31C13.4084 26.0374 11.8988 31.895 3 40C17.6024 75.0644 61.996 63.199 62 27C57.0786 32.8764 42.0251 48.9585 37 33C50.16 37.7963 52.1188 31.607 61 24C46.3976 -11.0643 2.00399 0.800926 2 37z"/>
<path style="fill:#755a7a; stroke:none;" d="M42.6667 8.33333L43.3333 8.66667L42.6667 8.33333z"/>
<path style="fill:#fffffd; stroke:none;" d="M19 53C23.7229 55.9698 28.0275 51.3075 30.0802 46.9992L35.0941 22.0008L44 9C25.6975 11.448 33.9443 43.4697 19 53z"/>
<path style="fill:#a0a0a1; stroke:none;" d="M38 10L39 11L38 10z"/>
<path style="fill:#928b93; stroke:none;" d="M44 10L45 11L44 10z"/>
<path style="fill:#b8b2b9; stroke:none;" d="M43 11L44 12L43 11M41 12L42 13L41 12M39 13L40 14L39 13z"/>
<path style="fill:#928b93; stroke:none;" d="M34 14L35 15L34 14M45 14L46 15L45 14z"/>
<path style="fill:#cfcecd; stroke:none;" d="M37 15L38 16L37 15z"/>
<path style="fill:#fffffd; stroke:none;" d="M44 15C45.4557 20.1864 49.1764 23.7503 54 26C53.1326 20.3789 49.4408 16.5273 44 15z"/>
<path style="fill:#a0a0a1; stroke:none;" d="M47 15L48 16L47 15z"/>
<path style="fill:#cfcecd; stroke:none;" d="M33.3333 16.6667L33.6667 17.3333L33.3333 16.6667z"/>
<path style="fill:#8e6696; stroke:none;" d="M40.6667 17.3333L41.3333 17.6667L40.6667 17.3333z"/>
<path style="fill:#ae8eb4; stroke:none;" d="M39 18L39 21L39 18z"/>
<path style="fill:#fffffd; stroke:none;" d="M40 18C41.4036 23.9038 45.762 29.9943 52 31L43 18L40 18z"/>
<path style="fill:#a0a0a1; stroke:none;" d="M32 19L33 20L32 19z"/>
<path style="fill:#cfcecd; stroke:none;" d="M43 19L44 20L43 19z"/>
<path style="fill:#8e6696; stroke:none;" d="M35 20L35 23L35 20z"/>
<path style="fill:#b8b2b9; stroke:none;" d="M44 20L45 21L44 20M40 21L41 22L40 21z"/>
<path style="fill:#a0a0a1; stroke:none;" d="M45 21L46 22L45 21M41 22L42 23L41 22z"/>
<path style="fill:#cfcecd; stroke:none;" d="M31 23L31 27L31 23M34 23L34 27L34 23z"/>
<path style="fill:#a0a0a1; stroke:none;" d="M39 23L40 24L39 23z"/>
<path style="fill:#cfcecd; stroke:none;" d="M54.3333 23.6667L54.6667 24.3333L54.3333 23.6667z"/>
<path style="fill:#9f76a5; stroke:none;" d="M15 24L18 25L15 24z"/>
<path style="fill:#fffffd; stroke:none;" d="M38 24L42 33L44 33L45 32C43.707 27.9649 42.1515 25.2777 38 24z"/>
<path style="fill:#b8b2b9; stroke:none;" d="M59.6667 24.3333L60.3333 24.6667L59.6667 24.3333z"/>
<path style="fill:#fffffd; stroke:none;" d="M3 39L13.0046 29.0285C17.3653 26.8319 22.5438 29.3449 27 30C23.0109 16.3513 4.24454 29.5441 3 39z"/>
<path style="fill:#b8b2b9; stroke:none;" d="M21 25L22 26L21 25z"/>
<path style="fill:#9f76a5; stroke:none;" d="M37 25L38 26L37 25z"/>
<path style="fill:#cfcecd; stroke:none;" d="M48 25L49 26L48 25z"/>
<path style="fill:#a0a0a1; stroke:none;" d="M54 25L55 26L54 25z"/>
<path style="fill:#fffffd; stroke:none;" d="M58 25C53.9025 36.7242 47.363 35.5236 37 34C38.0687 39.0129 46.6495 39.847 51 38.5278C57.0805 36.6839 60.3495 30.9542 61 25L58 25z"/>
<path style="fill:#cfcecd; stroke:none;" d="M10 26L11 27L10 26z"/>
<path style="fill:#8e6696; stroke:none;" d="M24.6667 26.3333L25.3333 26.6667L24.6667 26.3333z"/>
<path style="fill:#a0a0a1; stroke:none;" d="M42 26L43 27L42 26z"/>
<path style="fill:#7f817f; stroke:none;" d="M44 26L45 27L44 26z"/>
<path style="fill:#b8b2b9; stroke:none;" d="M49 26L50 27L49 26z"/>
<path style="fill:#a0a0a1; stroke:none;" d="M8 27L9 28L8 27z"/>
<path style="fill:#7a747c; stroke:none;" d="M27.3333 27.6667L27.6667 28.3333L27.3333 27.6667z"/>
<path style="fill:#755a7a; stroke:none;" d="M30 27L30 31L30 27M34.3333 27.6667L34.6667 28.3333L34.3333 27.6667z"/>
<path style="fill:#ae8eb4; stroke:none;" d="M43 27L44 28L43 27z"/>
<path style="fill:#7f817f; stroke:none;" d="M45 27L46 28L45 27z"/>
<path style="fill:#7a747c; stroke:none;" d="M50 27L51 28L50 27z"/>
<path style="fill:#a0a0a1; stroke:none;" d="M7 28L8 29L7 28z"/>
<path style="fill:#b8b2b9; stroke:none;" d="M12.6667 28.3333L13.3333 28.6667L12.6667 28.3333z"/>
<path style="fill:#755a7a; stroke:none;" d="M14.6667 28.3333L15.3333 28.6667L14.6667 28.3333z"/>
<path style="fill:#8e6696; stroke:none;" d="M17.6667 28.3333L18.3333 28.6667L17.6667 28.3333z"/>
<path style="fill:#b8b2b9; stroke:none;" d="M19.6667 28.3333L20.3333 28.6667L19.6667 28.3333M39 28L40 29L39 28z"/>
<path style="fill:#cfcecd; stroke:none;" d="M46 28L47 29L46 28z"/>
<path style="fill:#b8b2b9; stroke:none;" d="M60 28L61 29L60 28z"/>
<path style="fill:#a0a0a1; stroke:none;" d="M6 29L7 30L6 29z"/>
<path style="fill:#ae8eb4; stroke:none;" d="M11 29L12 30L11 29z"/>
<path style="fill:#b8b2b9; stroke:none;" d="M23 29L24 30L23 29z"/>
<path style="fill:#cfcecd; stroke:none;" d="M44 29L45 30L44 29z"/>
<path style="fill:#7f817f; stroke:none;" d="M56 29L57 30L56 29z"/>
<path style="fill:#cfcecd; stroke:none;" d="M25.6667 30.3333L26.3333 30.6667L25.6667 30.3333z"/>
<path style="fill:#755a7a; stroke:none;" d="M45.3333 30.6667L45.6667 31.3333L45.3333 30.6667z"/>
<path style="fill:#b8b2b9; stroke:none;" d="M19.6667 31.3333L20.3333 31.6667L19.6667 31.3333M30.3333 31.6667L30.6667 32.3333L30.3333 31.6667M33.3333 31.6667L33.6667 32.3333L33.3333 31.6667z"/>
<path style="fill:#ae8eb4; stroke:none;" d="M41 31L42 32L41 31z"/>
<path style="fill:#a0a0a1; stroke:none;" d="M49.6667 31.3333L50.3333 31.6667L49.6667 31.3333z"/>
<path style="fill:#cfcecd; stroke:none;" d="M55 31L56 32L55 31z"/>
<path style="fill:#928b93; stroke:none;" d="M4 32L5 33L4 32M8 32L9 33L8 32z"/>
<path style="fill:#a0a0a1; stroke:none;" d="M12.6667 32.3333L13.3333 32.6667L12.6667 32.3333z"/>
<path style="fill:#cfcecd; stroke:none;" d="M18 32L18 35L18 32z"/>
<path style="fill:#fffffd; stroke:none;" d="M19 32C19.84 36.1645 21.6135 38.4771 25 41C25.3592 37.3093 23.8686 35.1616 22 32L19 32z"/>
<path style="fill:#928b93; stroke:none;" d="M44 32L45 33L44 32z"/>
<path style="fill:#9f76a5; stroke:none;" d="M54 32L55 33L54 32z"/>
<path style="fill:#cfcecd; stroke:none;" d="M58 32L59 33L58 32z"/>
<path style="fill:#b8b2b9; stroke:none;" d="M7 33L8 34L7 33z"/>
<path style="fill:#9f76a5; stroke:none;" d="M11.3333 33.6667L11.6667 34.3333L11.3333 33.6667z"/>
<path style="fill:#fffffd; stroke:none;" d="M12 33C13.5995 38.8719 18.0582 44.3276 24 46C22.4224 40.3663 17.7038 34.6347 12 33z"/>
<path style="fill:#9f76a5; stroke:none;" d="M15 33L16 34L15 33z"/>
<path style="fill:#b8b2b9; stroke:none;" d="M22 33L23 34L22 33z"/>
<path style="fill:#7f817f; stroke:none;" d="M33.3333 33.6667L33.6667 34.3333L33.3333 33.6667z"/>
<path style="fill:#b8b2b9; stroke:none;" d="M37.6667 33.3333L38.3333 33.6667L37.6667 33.3333z"/>
<path style="fill:#928b93; stroke:none;" d="M53 33L54 34L53 33z"/>
<path style="fill:#cfcecd; stroke:none;" d="M3.33333 34.6667L3.66667 35.3333L3.33333 34.6667M40 34L41 35L40 34z"/>
<path style="fill:#a0a0a1; stroke:none;" d="M52 34L53 35L52 34M19 35L20 36L19 35z"/>
<path style="fill:#755a7a; stroke:none;" d="M33 35L33 38L33 35z"/>
<path style="fill:#b8b2b9; stroke:none;" d="M43.6667 35.3333L44.3333 35.6667L43.6667 35.3333z"/>
<path style="fill:#755a7a; stroke:none;" d="M45 35L49 36L45 35z"/>
<path style="fill:#b8b2b9; stroke:none;" d="M49.6667 35.3333L50.3333 35.6667L49.6667 35.3333z"/>
<path style="fill:#7a747c; stroke:none;" d="M56 35L57 36L56 35z"/>
<path style="fill:#a0a0a1; stroke:none;" d="M29.3333 36.6667L29.6667 37.3333L29.3333 36.6667z"/>
<path style="fill:#cfcecd; stroke:none;" d="M32 36L32 41L32 36z"/>
<path style="fill:#7a747c; stroke:none;" d="M13 37L14 38L13 37z"/>
<path style="fill:#b8b2b9; stroke:none;" d="M18 37L19 38L18 37M25 37L26 38L25 37z"/>
<path style="fill:#cfcecd; stroke:none;" d="M39.6667 37.3333L40.3333 37.6667L39.6667 37.3333z"/>
<path style="fill:#b8b2b9; stroke:none;" d="M53 37L54 38L53 37z"/>
<path style="fill:#928b93; stroke:none;" d="M5 38L6 39L5 38z"/>
<path style="fill:#fffffd; stroke:none;" d="M9 38C10.4127 43.4326 13.9305 47.6162 19 50L20 49L12 38L9 38z"/>
<path style="fill:#a0a0a1; stroke:none;" d="M14 38L15 39L14 38z"/>
<path style="fill:#b8b2b9; stroke:none;" d="M19 38L20 39L19 38z"/>
<path style="fill:#593d5d; stroke:none;" d="M26.3333 38.6667L26.6667 39.3333L26.3333 38.6667z"/>
<path style="fill:#a0a0a1; stroke:none;" d="M42 38L43 39L42 38z"/>
<path style="fill:#b8b2b9; stroke:none;" d="M51 38L52 39L51 38z"/>
<path style="fill:#755a7a; stroke:none;" d="M3.66667 39.3333L4.33333 39.6667L3.66667 39.3333z"/>
<path style="fill:#414341; stroke:none;" d="M8.33333 39.6667L8.66667 40.3333L8.33333 39.6667z"/>
<path style="fill:#cfcecd; stroke:none;" d="M12 39L13 40L12 39z"/>
<path style="fill:#b8b2b9; stroke:none;" d="M15 39L16 40L15 39z"/>
<path style="fill:#ae8eb4; stroke:none;" d="M20 39L21 40L20 39z"/>
<path style="fill:#b8b2b9; stroke:none;" d="M22 39L23 40L22 39z"/>
<path style="fill:#755a7a; stroke:none;" d="M45 39L50 40L45 39z"/>
<path style="fill:#cfcecd; stroke:none;" d="M13 40L14 41L13 40z"/>
<path style="fill:#a0a0a1; stroke:none;" d="M23 40L24 41L23 40M9 41L10 42L9 41z"/>
<path style="fill:#928b93; stroke:none;" d="M14 41L15 42L14 41M28.3333 41.6667L28.6667 42.3333L28.3333 41.6667z"/>
<path style="fill:#b8b2b9; stroke:none;" d="M10 42L11 43L10 42M15 42L16 43L15 42M11 43L12 44L11 43z"/>
<path style="fill:#8e6696; stroke:none;" d="M16 43L17 44L16 43z"/>
<path style="fill:#cfcecd; stroke:none;" d="M28 43L29 44L28 43M31 43L32 44L31 43z"/>
<path style="fill:#ae8eb4; stroke:none;" d="M17 44L18 45L17 44M20 45L21 46L20 45z"/>
<path style="fill:#9f76a5; stroke:none;" d="M21.6667 46.3333L22.3333 46.6667L21.6667 46.3333z"/>
<path style="fill:#cfcecd; stroke:none;" d="M30 46L31 47L30 46z"/>
<path style="fill:#b8b2b9; stroke:none;" d="M26 47L27 48L26 47z"/>
<path style="fill:#928b93; stroke:none;" d="M25 48L26 49L25 48z"/>
<path style="fill:#a0a0a1; stroke:none;" d="M29 48L30 49L29 48z"/>
<path style="fill:#9f76a5; stroke:none;" d="M23 50L24 51L23 50z"/>
<path style="fill:#7f817f; stroke:none;" d="M27 51L28 52L27 51z"/>
<path style="fill:#8e6696; stroke:none;" d="M19 52L20 53L19 52z"/>
<path style="fill:#928b93; stroke:none;" d="M26 52L27 53L26 52z"/>
<path style="fill:#b8b2b9; stroke:none;" d="M19 54L20 55L19 54M22.6667 54.3333L23.3333 54.6667L22.6667 54.3333z"/>
</svg>
